<svg width="32" height="32" viewBox="0 0 32 32" fill="none" xmlns="http://www.w3.org/2000/svg"><g clip-path="url(#clip0_27_44990)" fill="#444746"><path d="M17.901 0h-.78a.52.52 0 00-.52.52v30.96c0 .287.233.52.52.52h.78a.52.52 0 00.52-.52V.52a.52.52 0 00-.52-.52zM15.3 0h-.78a.52.52 0 00-.521.52v30.96c0 .287.233.52.52.52h.78a.52.52 0 00.521-.52V.52A.52.52 0 0015.3 0zm3.122 1.04h.52c.431 0 .78.35.78.781v7.024a.78.78 0 01-.78.78h-.52V1.042z"/></g><defs><clipPath id="clip0_27_44990"><path fill="#fff" transform="translate(14)" d="M0 0h5.724v32H0z"/></clipPath></defs></svg>