<svg width="33" height="32" viewBox="0 0 33 32" fill="none" xmlns="http://www.w3.org/2000/svg"><g clip-path="url(#clip0_27_44992)" fill-rule="evenodd" clip-rule="evenodd" fill="#444746"><path d="M4.684 0A4.667 4.667 0 00.018 4.667v22.666A4.667 4.667 0 004.684 32h8.872c1.084 0 2.059-.66 2.462-1.667A2.651 2.651 0 0018.479 32h8.872a4.667 4.667 0 004.667-4.667V4.667A4.667 4.667 0 0027.35 0h-8.872a2.65 2.65 0 00-2.461 1.667A2.651 2.651 0 0013.556 0H4.684zm0 2.333a2.333 2.333 0 00-2.333 2.334v22.666a2.333 2.333 0 002.333 2.334h22.667a2.333 2.333 0 002.333-2.334V4.667a2.333 2.333 0 00-2.333-2.334H4.684z"/><path d="M23.46 7.816a.737.737 0 01.742.733l.033 6.636a.737.737 0 01-1.475.008l-.024-4.856L10.494 22.7l4.856-.024a.737.737 0 01.008 1.474l-6.636.033a.737.737 0 01-.741-.733l-.033-6.636a.737.737 0 111.474-.008l.025 4.856L21.688 9.3l-4.855.024a.737.737 0 11-.008-1.474l6.636-.033z"/></g><defs><clipPath id="clip0_27_44992"><path fill="#fff" transform="translate(.018)" d="M0 0h32v32H0z"/></clipPath></defs></svg>