<svg width="32" height="32" viewBox="0 0 32 32" fill="none" xmlns="http://www.w3.org/2000/svg"><g clip-path="url(#clip0_27_44991)" fill="#444746"><path d="M6.1 6.4h22.232L8.273.322a1.684 1.684 0 00-2.172 1.611V6.4zM30.016 32H27.66V12.463a2.358 2.358 0 00-2.358-2.358H6.437a2.358 2.358 0 00-2.357 2.358V32H1.722V12.463a4.716 4.716 0 014.715-4.716h23.58V32z"/><path fill-rule="evenodd" clip-rule="evenodd" d="M6.1 15.495a3.368 3.368 0 013.369-3.369h8.758a3.368 3.368 0 013.368 3.369v5.052a3.368 3.368 0 01-3.368 3.369H9.469a3.368 3.368 0 01-3.368-3.369v-5.052zm1.348 0a2.02 2.02 0 012.021-2.021h6.4a2.02 2.02 0 110 4.042h-6.4a2.02 2.02 0 01-2.021-2.021zm2.021 3.031a2.02 2.02 0 100 4.042h6.4a2.02 2.02 0 100-4.042h-6.4z"/></g><defs><clipPath id="clip0_27_44991"><path fill="#fff" transform="translate(1.723)" d="M0 0h28.295v32H0z"/></clipPath></defs></svg>