<svg width="33" height="32" viewBox="0 0 33 32" fill="none" xmlns="http://www.w3.org/2000/svg"><g clip-path="url(#clip0_27_44993)"><path fill-rule="evenodd" clip-rule="evenodd" d="M.018 3a3 3 0 013-3h26a3 3 0 013 3v26a3 3 0 01-3 3h-26a3 3 0 01-3-3V3zm22.828 16.888h-4.62v-1.555l4.46-6.629h2.082v6.395h1.247v1.789h-1.247v1.848h-1.922v-1.848zm0-1.79v-3.534h-.117l-2.376 3.535h2.493zm-14.071 3.17c.85.469 1.78.704 2.787.704.82 0 1.564-.132 2.229-.396a4.737 4.737 0 001.701-1.174c.43-.45.748-.973.954-1.569a5.665 5.665 0 00.322-1.936c0-.342-.034-.65-.102-.924h-5.148v1.687h3.3c-.069.322-.176.62-.323.894a2.455 2.455 0 01-.513.675c-.626.577-1.428.865-2.406.865a3.729 3.729 0 01-1.79-.44 3.438 3.438 0 01-1.29-1.276c-.322-.557-.484-1.188-.484-1.892s.157-1.33.47-1.877a3.302 3.302 0 011.29-1.276 3.552 3.552 0 011.775-.455c.567 0 1.06.093 1.481.279.43.186.822.464 1.174.836l1.364-1.335a4.946 4.946 0 00-1.76-1.217c-.675-.293-1.423-.44-2.244-.44-1.007 0-1.936.24-2.787.719a5.31 5.31 0 00-2.01 1.965c-.498.831-.747 1.765-.747 2.801 0 1.037.249 1.975.748 2.816a5.456 5.456 0 002.009 1.966z" fill="#444746"/></g><defs><clipPath id="clip0_27_44993"><path fill="#fff" transform="translate(.018)" d="M0 0h32v32H0z"/></clipPath></defs></svg>