<svg width="50" height="49" viewBox="0 0 50 49" fill="none" xmlns="http://www.w3.org/2000/svg"><path d="M45.978 24.487c-2.88 0-5.542-.545-8.075-1.62-2.534-1.112-4.769-2.625-6.643-4.5-1.874-1.874-3.388-4.109-4.498-6.643-1.076-2.533-1.622-5.195-1.622-8.076a.083.083 0 10-.165 0c0 2.88-.563 5.542-1.674 8.076-1.076 2.534-2.572 4.77-4.446 6.643-1.873 1.875-4.109 3.388-6.642 4.499-2.534 1.076-5.196 1.621-8.077 1.621a.083.083 0 100 .166c2.88 0 5.542.563 8.077 1.674 2.534 1.076 4.769 2.572 6.642 4.445 1.874 1.875 3.37 4.11 4.447 6.645 1.11 2.532 1.673 5.193 1.673 8.073a.083.083 0 10.165 0c0-2.88.546-5.541 1.621-8.074 1.111-2.534 2.625-4.77 4.499-6.643 1.874-1.875 4.108-3.37 6.643-4.447 2.534-1.11 5.195-1.673 8.075-1.673a.083.083 0 100-.166z" fill="url(#paint0_radial_6501_167349)"/><defs><radialGradient id="paint0_radial_6501_167349" cx="0" cy="0" r="1" gradientUnits="userSpaceOnUse" gradientTransform="matrix(45.4244 0 0 362.542 -8.838 24.517)"><stop offset=".385" stop-color="#9E72BA"/><stop offset=".734" stop-color="#D65C67"/><stop offset=".931" stop-color="#D6635C"/></radialGradient></defs></svg>