<svg width="17" height="32" viewBox="0 0 17 32" fill="none" xmlns="http://www.w3.org/2000/svg">
<path d="M9.04371 9.62424V8.53242C9.04371 7.30495 10.0424 6.30626 11.2701 6.30626C13.5962 6.30626 15.4885 4.41394 15.4885 2.08791V0H13.4963V2.08765C13.4963 3.31538 12.4976 4.31381 11.2701 4.31381C8.9441 4.31381 7.05152 6.20639 7.05152 8.53242V9.62424C3.08245 10.1166 0 13.51 0 17.6104V23.9521C0 28.3897 3.61007 32 8.04762 32C12.4852 32 16.0955 28.3899 16.0955 23.9524V17.6104C16.0955 13.51 13.013 10.1166 9.04371 9.62424ZM14.103 17.6104V18.0389H9.04371V11.6374C11.9106 12.114 14.103 14.6107 14.103 17.6104ZM7.05152 11.6374V18.0389H1.99219V17.6104C1.99219 14.6107 4.18489 12.114 7.05152 11.6374ZM8.04762 30.0078C4.70862 30.0078 1.99219 27.2914 1.99219 23.9524V20.0311H14.103V23.9524C14.103 27.2914 11.3866 30.0078 8.04762 30.0078Z" fill="#B3B3B3"/>
</svg>
