<svg width="31" height="31" viewBox="0 0 31 31" fill="none" xmlns="http://www.w3.org/2000/svg">
<path fill-rule="evenodd" clip-rule="evenodd" d="M0 15.5C0 6.96588 6.96477 0 15.5 0C24.0341 0 31 6.96472 31 15.5C31 24.0341 24.0352 31 15.5 31C11.376 31 7.48801 29.3833 4.5524 26.4476C1.61672 23.512 0 19.624 0 15.5ZM1.81641 15.5C1.81641 23.0452 7.95483 29.1836 15.5 29.1836C23.0452 29.1836 29.1836 23.0452 29.1836 15.5C29.1836 7.95483 23.0452 1.81641 15.5 1.81641C7.95483 1.81641 1.81641 7.95483 1.81641 15.5ZM7.26562 15.5C7.26562 10.9803 10.9939 7.26562 15.5 7.26562C16.0016 7.26562 16.4082 7.67224 16.4082 8.17383C16.4082 8.67542 16.0016 9.08203 15.5 9.08203C12.0211 9.08203 9.08203 12.0211 9.08203 15.5C9.08203 16.0016 8.6754 16.4082 8.17383 16.4082C7.67226 16.4082 7.26562 16.0016 7.26562 15.5ZM22.8262 14.5918C22.3246 14.5918 21.918 14.9984 21.918 15.5C21.918 18.9789 18.9789 21.918 15.5 21.918C14.9984 21.918 14.5918 22.3246 14.5918 22.8262C14.5918 23.3278 14.9984 23.7344 15.5 23.7344C20.0061 23.7344 23.7344 20.0197 23.7344 15.5C23.7344 14.9984 23.3277 14.5918 22.8262 14.5918ZM3.63281 15.5C3.63281 8.98322 8.98134 3.63281 15.5 3.63281C16.0016 3.63281 16.4082 4.03943 16.4082 4.54102C16.4082 5.0426 16.0016 5.44922 15.5 5.44922C9.95802 5.44922 5.44922 9.95795 5.44922 15.5C5.44922 16.0016 5.04259 16.4082 4.54102 16.4082C4.03944 16.4082 3.63281 16.0016 3.63281 15.5ZM26.459 14.5918C25.9574 14.5918 25.5508 14.9984 25.5508 15.5C25.5508 21.0421 21.042 25.5508 15.5 25.5508C14.9984 25.5508 14.5918 25.9574 14.5918 26.459C14.5918 26.9606 14.9984 27.3672 15.5 27.3672C22.0187 27.3672 27.3672 22.0168 27.3672 15.5C27.3672 14.9984 26.9606 14.5918 26.459 14.5918ZM10.8984 15.5C10.8984 13.0057 13.0057 10.8984 15.5 10.8984C17.9943 10.8984 20.1016 13.0057 20.1016 15.5C20.1016 17.9943 17.9943 20.1016 15.5 20.1016C13.0057 20.1016 10.8984 17.9943 10.8984 15.5ZM12.7148 15.5C12.7148 17.0098 13.9903 18.2852 15.5 18.2852C17.0097 18.2852 18.2852 17.0098 18.2852 15.5C18.2852 13.9902 17.0097 12.7148 15.5 12.7148C13.9903 12.7148 12.7148 13.9902 12.7148 15.5Z" fill="#B3B3B3"/>
</svg>
